<svg xmlns="http://www.w3.org/2000/svg" width="512" height="512" viewBox="60 90 392 390" role="img" aria-labelledby="title">
  <title id="title">Secure Drive icon</title>

  <defs>
    <linearGradient id="shield" x1="0" y1="0" x2="0" y2="1">
      <stop offset="0" stop-color="#23D5FF"/>
      <stop offset="1" stop-color="#2B6BFF"/>
    </linearGradient>

    <linearGradient id="cloud" x1="0" y1="0" x2="0" y2="1">
      <stop offset="0" stop-color="#EAF6FF"/>
      <stop offset="1" stop-color="#BFE7FF"/>
    </linearGradient>

    <filter id="shadow" x="-20%" y="-20%" width="140%" height="140%">
      <feDropShadow dx="0" dy="10" stdDeviation="14" flood-color="#000" flood-opacity="0.35"/>
    </filter>
  </defs>

  <path fill="url(#shield)" filter="url(#shadow)" d="M256 110s80 32 116 46v102c0 74-53 122-116 144-63-22-116-70-116-144V156c36-14 116-46 116-46z"/>

  <path fill="#06182C" opacity="0.3" d="M256 142s63 25 90 36v78c0 56-41 94-90 112-49-18-90-56-90-112v-78c27-11 90-36 90-36z"/>

  <path fill="url(#cloud)" transform="translate(0 -20)" d="M208 250c2-19 18-34 38-34 15 0 28 8 35 21 4-2 9-3 14-3 17 0 31 13 31 30 0 18-14 32-32 32h-80c-17 0-30-13-30-29 0-13 10-24 24-17z"/>

  <g transform="translate(145 161) scale(0.40)">
      <path fill="none" stroke="#0B1220" stroke-width="25" stroke-linecap="round" stroke-linejoin="round" d="M228 269
          v-18
          c0-26.5 21.5-48 48-48
          s48 21.5 48 48
          v18"/>
  </g>

  <rect x="226" y="268" width="60" height="54" rx="12" fill="#0B1220"/>

  <circle cx="256" cy="285" r="6" fill="#BFE7FF"/>
  <path d="M256 310v15" transform="translate(0 -25)" stroke="#BFE7FF" stroke-width="3.5" stroke-linecap="round"/>
</svg>
